<svg xmlns="http://www.w3.org/2000/svg" width="1440" height="960" viewBox="0 0 1440 960" fill="none">
  <g stroke="#24654d" stroke-width="1.3" stroke-linecap="round" stroke-linejoin="round">
    <!-- Sparse circuit traces along the outer edges. -->
    <path d="M0 178h54l36 36v76l34 34h42M0 206h40l28 28v94l40 40h24"/>
    <circle cx="171" cy="324" r="5"/>
    <circle cx="137" cy="368" r="4"/>
    <path d="M90 244h35l22-22h46"/>
    <circle cx="198" cy="222" r="5"/>
    <path d="M1440 144h-66l-32 32v60l-38 38h-44M1440 170h-52l-24 24v70l-34 34h-20"/>
    <circle cx="1255" cy="274" r="5"/>
    <circle cx="1305" cy="298" r="4"/>
    <!-- A small shield and connected nodes. -->
    <path d="m1300 644 25 10v24c0 18-12 31-25 38-13-7-25-20-25-38v-24z"/>
    <path d="m1289 678 8 8 15-18M1325 678h39l28 28h48M1300 716v33l27 27h113"/>
    <circle cx="1364" cy="678" r="4" fill="#faf7f0"/>
    <path d="M0 742h50l32-32h45M0 770h67l26-26h65"/>
    <circle cx="132" cy="710" r="5"/>
    <circle cx="163" cy="744" r="5"/>
    <!-- Small terminal brackets, kept away from the central content. -->
    <path d="m88 583 12 10-12 10m23 0h17" stroke-width="1.8"/>
  </g>
  <g fill="#24654d" opacity=".55">
    <circle cx="1200" cy="390" r="1.5"/><circle cx="1216" cy="390" r="1.5"/><circle cx="1232" cy="390" r="1.5"/>
    <circle cx="1200" cy="406" r="1.5"/><circle cx="1216" cy="406" r="1.5"/><circle cx="1232" cy="406" r="1.5"/>
    <circle cx="1200" cy="422" r="1.5"/><circle cx="1216" cy="422" r="1.5"/><circle cx="1232" cy="422" r="1.5"/>
    <circle cx="190" cy="820" r="1.5"/><circle cx="206" cy="820" r="1.5"/><circle cx="222" cy="820" r="1.5"/>
    <circle cx="190" cy="836" r="1.5"/><circle cx="206" cy="836" r="1.5"/><circle cx="222" cy="836" r="1.5"/>
  </g>
</svg>
